
<svg width="24" height="24" viewBox="0 0 24 24" fill="none" xmlns="http://www.w3.org/2000/svg">
  <circle cx="12" cy="12" r="12" fill="#F5AC37" fill-opacity="0.1"/>
  <path d="M12 20C16.4183 20 20 16.4183 20 12C20 7.58172 16.4183 4 12 4C7.58172 4 4 7.58172 4 12C4 16.4183 7.58172 20 12 20Z" fill="#F5AC37"/>
  <path d="M9.02344 8H12.0234C14.7734 8 16.7734 9.7 16.7734 12C16.7734 14.25 14.8234 16 12.0234 16H9.02344V8ZM10.5234 9.35V14.65H12.0234C13.9734 14.65 15.2234 13.6 15.2234 12C15.2234 10.4 13.9734 9.35 12.0234 9.35H10.5234Z" fill="white"/>
</svg>
