
<svg width="24" height="24" viewBox="0 0 24 24" fill="none" xmlns="http://www.w3.org/2000/svg">
  <circle cx="12" cy="12" r="12" fill="#FF0420" fill-opacity="0.1"/>
  <path d="M12 20C16.4183 20 20 16.4183 20 12C20 7.58172 16.4183 4 12 4C7.58172 4 4 7.58172 4 12C4 16.4183 7.58172 20 12 20Z" fill="#FF0420"/>
  <path d="M11.9992 7.25977C15.1492 7.25977 17.6992 9.06641 17.6992 12.0039C17.6992 14.9473 15.1445 16.7539 11.9992 16.7539C8.84922 16.7539 6.29922 14.9473 6.29922 12.0039C6.29922 9.06641 8.85391 7.25977 11.9992 7.25977ZM12.0039 9.60156C10.5508 9.60156 9.52344 10.5352 9.52344 12.0039C9.52344 13.4727 10.5508 14.4062 12.0039 14.4062C13.457 14.4062 14.4844 13.4727 14.4844 12.0039C14.4844 10.5352 13.457 9.60156 12.0039 9.60156Z" fill="white"/>
</svg>
