
<svg width="24" height="24" viewBox="0 0 24 24" fill="none" xmlns="http://www.w3.org/2000/svg">
  <circle cx="12" cy="12" r="12" fill="#2775CA" fill-opacity="0.1"/>
  <path d="M12 20C16.4183 20 20 16.4183 20 12C20 7.58172 16.4183 4 12 4C7.58172 4 4 7.58172 4 12C4 16.4183 7.58172 20 12 20Z" fill="#2775CA"/>
  <path d="M12.9759 15.9181V17.0933C12.9759 17.1642 12.9488 17.232 12.9004 17.2805C12.8519 17.329 12.784 17.3561 12.7131 17.3561H11.2902C11.2193 17.3561 11.1514 17.329 11.1029 17.2805C11.0545 17.232 11.0273 17.1642 11.0273 17.0933V15.9378C10.3809 15.8898 9.75805 15.7081 9.19446 15.4052C9.09792 15.3495 9.02846 15.2581 9.00035 15.1519C8.97224 15.0457 8.9879 14.9331 9.04348 14.8376L9.82489 13.5687C9.85581 13.5183 9.89857 13.4758 9.94949 13.4451C10.0004 13.4144 10.0581 13.3962 10.1175 13.3919C10.1769 13.3877 10.2366 13.3974 10.2917 13.4204C10.3468 13.4434 10.3957 13.4791 10.4337 13.5244C10.7761 13.8342 11.1967 14.008 11.6366 14.0239C12.0764 14.0398 12.5094 13.8967 12.873 13.6193C12.9635 13.5429 13.037 13.4482 13.0884 13.3412C13.1399 13.2342 13.1679 13.1174 13.1705 12.9985C13.1732 12.8795 13.1504 12.7615 13.1038 12.652C13.0572 12.5425 12.988 12.4443 12.9011 12.3636C12.6825 12.1747 12.4259 12.0328 12.1478 11.9464C11.8697 11.8599 11.5767 11.8307 11.2865 11.8602C10.3551 11.9575 9.48507 12.36 8.82079 13.0032C8.15651 13.6463 7.74206 14.5074 7.65958 15.4273C7.57711 16.3473 7.81966 17.2674 8.34773 18.0365C8.87579 18.8057 9.65827 19.3762 10.5617 19.6464C10.698 19.6858 10.8374 19.7086 10.9782 19.715C11.0499 19.7176 11.1195 19.7459 11.1718 19.7944C11.2241 19.8428 11.2556 19.9088 11.2598 19.9793V21.1249C11.2598 21.1958 11.287 21.2637 11.3354 21.3121C11.3839 21.3606 11.4518 21.3877 11.5227 21.3877H12.9456C13.0165 21.3877 13.0844 21.3606 13.1328 21.3121C13.1813 21.2637 13.2084 21.1958 13.2084 21.1249V20.0025C14.0245 19.9304 14.806 19.6338 15.463 19.1478C15.5511 19.082 15.608 18.9848 15.6221 18.8773C15.6362 18.7698 15.6063 18.6616 15.539 18.5763L14.7838 17.3074C14.753 17.257 14.7102 17.2145 14.6593 17.1838C14.6084 17.1531 14.5507 17.1349 14.4913 17.1306C14.4319 17.1264 14.3722 17.1361 14.3171 17.1591C14.262 17.1821 14.2131 17.2178 14.1751 17.2631C13.8308 17.5747 13.4077 17.7898 12.954 17.8863C12.5003 17.9829 12.0298 17.9574 11.5901 17.8128C11.1505 17.6682 10.7597 17.4096 10.4577 17.0639C10.1557 16.7182 9.95474 16.2996 9.87895 15.8526C9.80316 15.4055 9.85553 14.9457 10.0294 14.525C10.2033 14.1043 10.4923 13.7389 10.8661 13.467C11.24 13.1951 11.685 13.0273 12.1445 12.9816C12.604 12.9358 13.0674 13.0134 13.4873 13.2068C13.9072 13.4003 14.269 13.7028 14.5363 14.0861C14.8036 14.4694 14.9671 14.9196 15.0113 15.3887C15.0554 15.8578 14.9787 16.3311 14.7887 16.7636C14.7516 16.8516 14.7434 16.9492 14.7651 17.0422C14.7868 17.1353 14.8373 17.2186 14.9092 17.2792L16.0327 18.155C16.1175 18.2211 16.2247 18.2485 16.3301 18.2313C16.4354 18.2141 16.5294 18.1536 16.5904 18.0636C17.0534 17.3695 17.3198 16.5612 17.359 15.7236C17.3983 14.886 17.2089 14.055 16.8114 13.32C16.4138 12.5849 15.8222 11.9737 15.1024 11.5528C14.3827 11.1319 13.5655 10.9184 12.7392 10.9375V9.90803C12.7392 9.8371 12.7121 9.76921 12.6636 9.72073C12.6151 9.67225 12.5472 9.64514 12.4763 9.64514H11.0534C10.9825 9.64514 10.9146 9.67225 10.8661 9.72073C10.8176 9.76921 10.7905 9.8371 10.7905 9.90803V10.9375C10.0053 10.997 9.24724 11.2678 8.59082 11.7227C8.50465 11.7885 8.44921 11.8847 8.43594 11.9908C8.42267 12.0968 8.45279 12.2034 8.51873 12.2878L9.30014 13.5567C9.33037 13.6079 9.37284 13.6513 9.42375 13.6827C9.47466 13.7142 9.53263 13.7328 9.59266 13.7372C9.65269 13.7415 9.7131 13.7315 9.76868 13.7079C9.82427 13.6843 9.87348 13.6477 9.9113 13.6014C10.2537 13.2916 10.6743 13.1178 11.1142 13.1019C11.554 13.086 11.987 13.229 12.3506 13.5065C12.4411 13.5829 12.5146 13.6776 12.566 13.7846C12.6175 13.8915 12.6455 14.0083 12.6482 14.1273C12.6508 14.2463 12.628 14.3642 12.5814 14.4738C12.5348 14.5833 12.4656 14.6815 12.3788 14.7621C12.1601 14.951 11.9035 15.0929 11.6254 15.1794C11.3474 15.2658 11.0544 15.295 10.7642 15.2656C9.83273 15.1682 8.96272 14.7657 8.29844 14.1226C7.63416 13.4795 7.21971 12.6184 7.13723 11.6984C7.05476 10.7784 7.29731 9.85837 7.82538 9.08924C8.35344 8.3201 9.13592 7.74957 10.0394 7.47938C10.1757 7.43998 10.3151 7.41711 10.456 7.41074C10.5276 7.40816 10.5973 7.37982 10.6496 7.33138C10.7019 7.28293 10.7333 7.21686 10.7375 7.1464V6.00078C10.7375 5.92985 10.7647 5.86195 10.8131 5.81348C10.8616 5.765 10.9295 5.73789 11.0004 5.73789H12.4234C12.4943 5.73789 12.5622 5.765 12.6106 5.81348C12.6591 5.86195 12.6863 5.92985 12.6863 6.00078V7.12321C13.5024 7.19534 14.2839 7.49198 14.9408 7.97792C15.029 8.04383 15.0857 8.14109 15.0997 8.24866C15.1136 8.35623 15.0836 8.46443 15.0161 8.54955L14.2616 9.81846C14.2306 9.86877 14.1878 9.91124 14.1369 9.94189C14.086 9.97255 14.0284 9.99067 13.969 9.99487C13.9096 9.99906 13.85 9.9893 13.7949 9.96626C13.7399 9.94323 13.691 9.90753 13.653 9.86211C13.3087 9.55061 12.8857 9.33561 12.432 9.23911C11.9783 9.14261 11.5078 9.16825 11.0682 9.31292C10.6286 9.45759 10.2379 9.71629 9.93602 10.062C9.63411 10.4078 9.43325 10.8266 9.35756 11.2738C9.28187 11.721 9.33431 12.1809 9.50824 12.6017C9.68217 13.0226 9.97123 13.3881 10.3451 13.6601C10.719 13.9321 11.1641 14.1001 11.6236 14.1459C12.0832 14.1917 12.5467 14.1142 12.9667 13.9208C13.3867 13.7273 13.7486 13.4247 14.0159 13.0413C14.2833 12.6579 14.4468 12.2077 14.491 11.7385C14.5352 11.2693 14.4584 10.796 14.2684 10.3634C14.2313 10.2754 14.2232 10.1778 14.2449 10.0848C14.2665 9.99182 14.3171 9.90848 14.389 9.84788L15.5125 8.97206C15.5974 8.90587 15.7046 8.8783 15.81 8.89541C15.9154 8.91253 16.0096 8.97294 16.0707 9.06293C16.5337 9.75699 16.8003 10.5653 16.8395 11.4029C16.8788 12.2406 16.6894 13.0717 16.2919 13.8068C15.8943 14.542 15.3027 15.1532 14.5829 15.5742C13.8632 15.9952 13.0459 16.2088 12.2195 16.1898L12.9759 15.9181Z" fill="white"/>
</svg>
